<?xml version="1.0" encoding="utf-8"?>
<!-- Generator: Adobe Illustrator 24.0.3, SVG Export Plug-In . SVG Version: 6.00 Build 0)  -->
<svg version="1.1" id="dewatered" xmlns="http://www.w3.org/2000/svg" xmlns:xlink="http://www.w3.org/1999/xlink" width="14.92px" height="16.5px"  x="0px" y="0px"
	 viewBox="0 0 16 17" style="enable-background:new 0 0 16 17;" xml:space="preserve">
<style type="text/css">
	.dewatered0{fill:#C89C00;}
	.dewatered1{fill:#21BB9F;}
</style>
<path class="dewatered0" d="M8.1,2.6l1.2-1.1c0.1,0.1,0.2,0.2,0.3,0.3l0.1,0.2c1-0.6,1.9-1.2,2.9-1.9l0.7,0.8c-0.1,0.1-0.1,0.1-0.2,0.2l0,0
	c-0.4,0.6-0.9,1.1-1.3,1.7c-0.2,0.3-0.4,0.5-0.6,0.8c0,0,0,0.1,0,0.1c0.1,0.1,0.2,0.3,0.4,0.4c-0.4,0.4-0.8,0.8-1.3,1.1L8.1,2.6z"/>
<path class="dewatered1" d="M10.4,16.8c-0.8,0-1.6,0-2.4,0c-0.7,0-1.4,0-2.1,0c-0.4,0-0.7-0.2-0.8-0.6c-0.2-0.5,0.2-1.1,0.8-1.1
	c1.4,0,2.9,0,4.3,0c1.6,0,3.2,0,4.7,0c0.6,0,1,0.6,0.8,1.1c-0.1,0.3-0.3,0.5-0.6,0.5c-0.1,0-0.2,0-0.3,0
	C13.3,16.8,11.8,16.8,10.4,16.8C10.4,16.8,10.4,16.8,10.4,16.8z"/>
<path class="dewatered1" d="M10.4,11.8c-1.5,0-3,0-4.5,0c-0.5,0-0.8-0.3-0.9-0.7c-0.1-0.5,0.3-1,0.8-1c1.5,0,3.1,0,4.6,0c1.5,0,3,0,4.4,0
	c0.5,0,0.8,0.3,0.9,0.7c0.1,0.5-0.3,0.9-0.8,0.9c-0.4,0-0.9,0-1.3,0C12.6,11.8,11.5,11.8,10.4,11.8C10.4,11.8,10.4,11.8,10.4,11.8z"
	/>
<path class="dewatered1" d="M10.4,14.3c-1.5,0-3,0-4.5,0c-0.3,0-0.6-0.1-0.8-0.4C5,13.6,5,13.3,5.2,13c0.2-0.3,0.4-0.4,0.7-0.4
	c0.9,0,1.8,0,2.7,0c1.2,0,2.4,0,3.6,0c0.9,0,1.8,0,2.7,0c0.6,0,1,0.6,0.8,1.2c-0.1,0.3-0.4,0.4-0.7,0.5c-0.1,0-0.2,0-0.3,0
	C13.3,14.3,11.8,14.3,10.4,14.3C10.4,14.3,10.4,14.3,10.4,14.3z"/>
<path class="dewatered1" d="M9.3,9.3c-0.6,0-1.2,0-1.8,0c-0.8-2-0.3-4.5,1.2-6.1c0.4,0.4,0.7,0.8,1.1,1.2C8.6,6,8.4,7.6,9.3,9.3z"/>
<path class="dewatered1" d="M0.9,15.1c1.2,0,2.3,0,3.5,0c-0.3,0.5-0.3,1.1,0,1.6c-0.1,0-0.1,0-0.1,0c-1.1,0-2.2,0-3.2,0
	c-0.1,0-0.1,0-0.1-0.1c0-0.5,0-0.9,0-1.4C0.9,15.2,0.9,15.2,0.9,15.1z"/>
</svg>
