<svg width="22" height="23" viewBox="0 0 22 23" fill="none" xmlns="http://www.w3.org/2000/svg">
<path d="M0 21.8546L6.18426 15.409C5.82658 14.5229 6.05467 13.4423 6.8737 12.8156C7.6098 12.2537 8.65174 12.2753 9.36711 12.8642C10.3624 13.68 10.4246 15.1928 9.55891 16.0951C8.94204 16.7381 8.04006 16.8893 7.28322 16.5544L1.09896 23L12.3944 19.1531C13.1254 18.9046 13.7111 18.3265 13.9962 17.5863L16.9665 10.3411L12.1456 5.31641L5.17861 8.41765C4.47361 8.70941 3.92413 9.30372 3.68049 10.0547C2.76296 12.875 0.482092 19.9258 0 21.8546Z" fill="currentColor"/>
<path d="M17.9513 9.17945L13.1925 4.21962C12.6845 3.69014 12.6845 2.83109 13.1925 2.30701L15.0224 0.399796C15.5304 -0.129685 16.3546 -0.129685 16.8575 0.399796L21.6162 5.35963C22.1242 5.88911 22.1242 6.74816 21.6162 7.27224L19.7863 9.17945C19.2835 9.70893 18.4593 9.70893 17.9513 9.17945Z" fill="currentColor"/>
</svg>
