<?xml version="1.0" encoding="utf-8"?>
<!-- Generator: Adobe Illustrator 24.1.3, SVG Export Plug-In . SVG Version: 6.00 Build 0)  -->
<svg version="1.1" id="Layer_1" xmlns="http://www.w3.org/2000/svg" xmlns:xlink="http://www.w3.org/1999/xlink" x="0px" y="0px"
	 viewBox="0 0 17.2 21.4" style="enable-background:new 0 0 17.2 21.4;" xml:space="preserve">
<path  d="M14.2,3.7h-2.5V3.2c0-0.8-0.6-1.5-1.4-1.5H6.7c-0.8,0-1.4,0.7-1.4,1.5v0.4H2.8c-0.7,0-1.3,0.7-1.3,1.5v0.8h14
	V5.1C15.5,4.3,14.9,3.7,14.2,3.7z M6.2,3.2c0-0.3,0.2-0.6,0.6-0.6h3.6c0.3,0,0.6,0.3,0.6,0.6v0.4H6.3V3.2H6.2z" fill="currentColor"/>
<path  d="M2.2,7l1.6,12.6h9.4L14.8,7L2.2,7L2.2,7z M5.8,17.9C5.7,17.9,5.7,17.9,5.8,17.9c-0.4,0-0.7-0.3-0.7-0.7L4.6,9.5
	c0-0.4,0.3-0.7,0.6-0.8c0.4,0,0.7,0.3,0.7,0.7l0.5,7.7C6.4,17.5,6.1,17.8,5.8,17.9z M9.1,17.2c0,0.4-0.3,0.7-0.7,0.7
	s-0.7-0.3-0.7-0.7V9.5c0-0.4,0.3-0.7,0.7-0.7s0.7,0.3,0.7,0.7V17.2z M11.9,17.2c0,0.4-0.3,0.7-0.7,0.7l0,0c-0.4,0-0.6-0.4-0.6-0.8
	l0.5-7.7c0-0.4,0.4-0.7,0.7-0.7c0.4,0,0.6,0.4,0.6,0.8L11.9,17.2z" fill="currentColor"/>
</svg>
