<svg width="8" height="12" viewBox="0 0 8 12" xmlns="http://www.w3.org/2000/svg">
<path d="M6.33737 1.39072C6.33737 1.69636 6.21595 1.98949 5.99983 2.20561C5.78371 2.42173 5.49058 2.54315 5.18494 2.54315C4.87929 2.54315 4.58617 2.42173 4.37004 2.20561C4.15392 1.98949 4.0325 1.69636 4.0325 1.39072C4.0325 1.08507 4.15392 0.791945 4.37004 0.575821C4.58617 0.359698 4.87929 0.238281 5.18494 0.238281C5.49058 0.238281 5.78371 0.359698 5.99983 0.575821C6.21595 0.791945 6.33737 1.08507 6.33737 1.39072ZM4.73635 7.26727L6.2325 8.74354C6.28987 8.80015 6.33472 8.86817 6.36417 8.9432L7.16194 10.9758C7.21779 11.1181 7.21484 11.2767 7.15373 11.4168C7.09263 11.5569 6.97836 11.667 6.83609 11.7229C6.69381 11.7787 6.53517 11.7758 6.39507 11.7147C6.25497 11.6536 6.14488 11.5393 6.08902 11.397L5.33591 9.47793L2.76367 6.93969C2.70152 6.87839 2.6541 6.80378 2.625 6.72148C2.5959 6.63917 2.58589 6.55134 2.5957 6.4646L2.8017 4.64375C2.305 5.13757 1.92182 5.83162 1.62824 6.75155C1.60629 6.82489 1.56994 6.89311 1.52133 6.95224C1.47272 7.01137 1.41282 7.06023 1.34511 7.09595C1.27741 7.13167 1.20327 7.15355 1.12702 7.16029C1.05077 7.16704 0.973942 7.15853 0.901019 7.13526C0.828095 7.11198 0.760539 7.07441 0.702297 7.02474C0.644056 6.97507 0.596295 6.91429 0.561805 6.84595C0.527315 6.77761 0.506786 6.70309 0.501418 6.62673C0.496051 6.55037 0.505951 6.4737 0.530542 6.40121C1.06931 4.7129 1.96388 3.44925 3.46493 2.86987L3.47155 2.86727C3.85387 2.72523 4.25146 2.73676 4.60584 2.91971C4.94609 3.09574 5.18839 3.3997 5.34714 3.74024C5.41398 3.88372 5.47564 4.01769 5.53384 4.14359C5.67443 4.44841 5.79256 4.70541 5.90636 4.93071C6.06568 5.24763 6.19389 5.45795 6.32066 5.60546C6.43821 5.74202 6.55489 5.82615 6.70385 5.88435C6.86403 5.94687 7.08847 5.99008 7.43507 6.00045C7.5112 6.00198 7.58629 6.01858 7.65597 6.0493C7.72565 6.08002 7.78855 6.12425 7.84104 6.17943C7.89353 6.23461 7.93455 6.29964 7.96175 6.37077C7.98895 6.44191 8.00177 6.51772 7.99949 6.59384C7.9972 6.66996 7.97985 6.74488 7.94844 6.81425C7.91703 6.88362 7.87217 6.94608 7.81647 6.99801C7.76077 7.04994 7.69533 7.09032 7.62393 7.1168C7.55253 7.14329 7.47658 7.15536 7.40049 7.15231C6.98417 7.13992 6.61453 7.08662 6.28465 6.95784C5.94381 6.82473 5.67501 6.62219 5.44625 6.35569C5.3022 6.18801 5.17543 5.99642 5.0573 5.78812L4.73635 7.26727Z" fill="currentColor"/>
<path d="M2.59645 7.79297L3.55153 8.70915L3.11188 10.192C3.07788 10.3068 3.009 10.4081 2.91481 10.4819L1.43566 11.6409C1.37607 11.6876 1.30787 11.7221 1.23496 11.7424C1.16204 11.7627 1.08584 11.7685 1.01071 11.7593C0.93557 11.7502 0.862968 11.7264 0.797047 11.6892C0.731126 11.652 0.673177 11.6021 0.626507 11.5426C0.579838 11.483 0.545362 11.4148 0.52505 11.3419C0.504737 11.2689 0.498984 11.1927 0.508121 11.1176C0.517257 11.0425 0.541103 10.9699 0.578297 10.9039C0.615492 10.838 0.665306 10.7801 0.724896 10.7334L2.05942 9.68815L2.46133 8.33116L2.59645 7.79297Z" fill="currentColor"/>
</svg>
