<svg width="15" height="16" viewBox="0 0 9 10" fill="none" xmlns="http://www.w3.org/2000/svg">
  <path d="M4.90299 3.75L7.39205 3.75L4.90299 1.28203L4.90299 3.75ZM6.25299 6.00703V5.1H2.66705L2.66705 6.00703H6.25299ZM6.25299 7.8L6.25299 6.89297H2.66705V7.8H6.25299ZM5.36705 0.607031L8.06705 3.30703L8.06705 8.70703C8.06705 8.94609 7.97565 9.15703 7.79284 9.33984C7.61002 9.50859 7.39909 9.59297 7.16002 9.59297H1.76002C1.52096 9.59297 1.31002 9.50859 1.12721 9.33984C0.944398 9.15703 0.852992 8.94609 0.852992 8.70703L0.874085 1.49297C0.874085 1.25391 0.95846 1.05 1.12721 0.88125C1.31002 0.698437 1.52096 0.607031 1.76002 0.607031L5.36705 0.607031Z" fill="currentColor"/>
</svg>
